<svg width="18" height="20" viewBox="0 0 18 20" fill="none" xmlns="http://www.w3.org/2000/svg">
<path d="M16.8542 15.3893C16.5624 16.0634 16.217 16.6839 15.8168 17.2544C15.2713 18.0322 14.8246 18.5705 14.4804 18.8695C13.9468 19.3602 13.3751 19.6115 12.763 19.6258C12.3235 19.6258 11.7934 19.5007 11.1765 19.247C10.5575 18.9945 9.98867 18.8695 9.46854 18.8695C8.92304 18.8695 8.33801 18.9945 7.71223 19.247C7.08551 19.5007 6.58063 19.6329 6.19461 19.646C5.60755 19.671 5.02239 19.4126 4.43831 18.8695C4.06551 18.5443 3.59922 17.9869 3.04062 17.1973C2.44129 16.354 1.94856 15.3762 1.56254 14.2614C1.14914 13.0572 0.941895 11.8912 0.941895 10.7623C0.941895 9.46921 1.22131 8.35393 1.78098 7.41932C2.22083 6.66861 2.80599 6.07642 3.53836 5.6417C4.27073 5.20697 5.06205 4.98543 5.91424 4.97126C6.38053 4.97126 6.99201 5.1155 7.7519 5.39896C8.50963 5.68338 8.99617 5.82762 9.20949 5.82762C9.36897 5.82762 9.90946 5.65897 10.8257 5.32274C11.6922 5.01092 12.4235 4.88181 13.0226 4.93267C14.646 5.06368 15.8656 5.70363 16.6767 6.85655C15.2248 7.73625 14.5066 8.96838 14.5209 10.549C14.534 11.7802 14.9807 12.8047 15.8585 13.6182C16.2563 13.9958 16.7005 14.2876 17.1948 14.4948C17.0876 14.8057 16.9745 15.1034 16.8542 15.3893ZM13.131 0.738313C13.131 1.7033 12.7784 2.60431 12.0757 3.43828C11.2277 4.4297 10.202 5.00258 9.08967 4.91219C9.0755 4.79642 9.06728 4.67457 9.06728 4.54654C9.06728 3.62015 9.47056 2.62873 10.1867 1.81811C10.5443 1.40768 10.999 1.06641 11.5505 0.794172C12.1007 0.525998 12.6212 0.377692 13.1107 0.352295C13.125 0.481299 13.131 0.610324 13.131 0.738313Z" fill="#070707"/>
</svg>
