<?xml version="1.0" encoding="UTF-8"?>
<svg version="1.1" xmlns="http://www.w3.org/2000/svg" width="200" height="200">
<path d="M0 0 C2.50330116 -0.02133052 5.00658781 -0.04443124 7.50985718 -0.06921387 C12.75031292 -0.10947901 17.98941369 -0.11429089 23.22998047 -0.09667969 C29.90988409 -0.07461816 36.58221485 -0.17058881 43.26119423 -0.29203033 C48.43149114 -0.37003634 53.60023393 -0.37826094 58.77103806 -0.36735535 C61.23088419 -0.37239822 63.69081018 -0.40103032 66.15007401 -0.45478821 C87.29266198 -0.86599896 87.29266198 -0.86599896 95.75041771 6.55530548 C98.2852646 9.08076722 100.62911498 11.71688145 102.92196274 14.46244812 C105.34457105 17.19001222 108.05106028 19.51125602 110.83120155 21.86556244 C112.53439479 23.3095624 114.17785355 24.79542079 115.80859375 26.3203125 C116.76636719 27.21492188 117.72414062 28.10953125 118.7109375 29.03125 C120.17206794 30.40020174 121.63316423 31.76920212 123.08943176 33.14332581 C124.60178135 34.47316286 124.60178135 34.47316286 126.44511414 35.24131775 C128.75250209 36.38418409 130.05015962 37.36703501 131.6484375 39.40625 C132.71702278 44.28158075 132.58545279 49.15511146 132.5078125 54.12109375 C132.50744848 55.57931139 132.50945886 57.03753138 132.51373291 58.4957428 C132.51502596 61.54843599 132.49210463 64.59968742 132.45117188 67.65209961 C132.4001393 71.55426194 132.40228304 75.45415254 132.42177963 79.35652828 C132.43210556 82.36710661 132.41761616 85.3771679 132.39539337 88.3876667 C132.38705988 89.82567607 132.38552104 91.26374215 132.39104462 92.70176506 C132.4117234 105.31942441 132.4117234 105.31942441 129.22753906 109.27172852 C125.20656432 112.59957613 122.42294612 112.55663842 117.38702393 112.56015015 C116.63000773 112.5645324 115.87299154 112.56891465 115.09303546 112.5734297 C112.54281545 112.58684129 109.99263002 112.59300185 107.44238281 112.59912109 C105.6193323 112.60702021 103.79628336 112.61528904 101.97323608 112.62390137 C95.97436013 112.65014372 89.97547711 112.66543129 83.9765625 112.6796875 C81.91319524 112.68504629 79.84982804 112.69042379 77.78646088 112.69581985 C69.20460745 112.7174519 60.62275592 112.7361893 52.04088211 112.74744225 C39.73325719 112.76368546 27.42594778 112.79686864 15.11844182 112.85384309 C6.46954695 112.89251866 -2.17926345 112.91207212 -10.82824254 112.91736281 C-15.99626197 112.92101956 -21.16394505 112.93307518 -26.33187103 112.96546555 C-31.19434814 112.99550412 -36.05628464 113.00187304 -40.91883469 112.99008179 C-42.70305011 112.9898607 -44.48729031 112.99819492 -46.27141953 113.01573563 C-48.70900303 113.03839528 -51.14462092 113.03014884 -53.58221436 113.01425171 C-54.639527 113.03507484 -54.639527 113.03507484 -55.71819949 113.05631864 C-61.29060939 112.96687285 -63.56986919 111.20274207 -67.3515625 107.40625 C-68.73247927 104.64441645 -68.5482919 102.33798476 -68.6237793 99.24755859 C-68.65598068 97.95216156 -68.68818207 96.65676453 -68.72135925 95.32211304 C-68.82326699 90.16194442 -68.89823865 85.00138252 -68.95181561 79.84049034 C-68.992746 75.92513081 -69.05299221 72.01228041 -69.16088867 68.09814453 C-69.26498073 64.30893481 -69.31927036 60.52195906 -69.33927345 56.73140335 C-69.3551499 55.2919329 -69.38825632 53.85253905 -69.43942833 52.41389084 C-69.82005819 41.17067184 -69.82005819 41.17067184 -66.1963501 36.81672668 C-63.67082497 34.79173638 -61.10255851 33.10515888 -58.3515625 31.40625 C-56.99796228 30.23881797 -55.66645299 29.04442556 -54.375 27.80859375 C-53.46947388 26.95334106 -53.46947388 26.95334106 -52.5456543 26.08081055 C-51.64520386 25.22096558 -51.64520386 25.22096558 -50.7265625 24.34375 C-49.42923025 23.11889622 -48.13106282 21.8949264 -46.83203125 20.671875 C-46.22665527 20.10146484 -45.6212793 19.53105469 -44.99755859 18.94335938 C-42.49860432 16.60971711 -39.95707271 14.33928537 -37.30282593 12.18371582 C-35.27150761 10.44761052 -35.27150761 10.44761052 -33.69522095 8.17565918 C-25.14801087 -2.05157447 -12.2342774 -0.01266242 0 0 Z M-32.3515625 21.40625 C-33.67791839 22.62473417 -35.02606383 23.8209768 -36.4140625 24.96875 C-39.75652567 27.87308903 -43.06304037 30.8160686 -46.3515625 33.78125 C-47.3003125 34.63460937 -48.2490625 35.48796875 -49.2265625 36.3671875 C-49.9278125 37.04007813 -50.6290625 37.71296875 -51.3515625 38.40625 C-51.3515625 38.73625 -51.3515625 39.06625 -51.3515625 39.40625 C-34.8515625 39.40625 -18.3515625 39.40625 -1.3515625 39.40625 C-1.3515625 41.71625 -1.3515625 44.02625 -1.3515625 46.40625 C0.63107434 52.15589685 2.9789054 56.733039 8.21923828 60.01757812 C12.52355954 61.76063518 16.10571217 61.87386921 20.703125 61.875 C21.56350372 61.88261353 22.42388245 61.89022705 23.31033325 61.89807129 C25.12401439 61.90883876 26.93775736 61.91173907 28.75146484 61.90722656 C31.50855267 61.90625524 34.26284532 61.94789153 37.01953125 61.9921875 C38.78905675 61.99739617 40.55859184 62.00008267 42.328125 62 C43.14296356 62.01639526 43.95780212 62.03279053 44.79733276 62.04968262 C50.85162007 61.97753433 54.97085164 60.27129586 59.6484375 56.40625 C64.49152496 50.32134525 64.6484375 47.22706285 64.6484375 39.40625 C81.1484375 39.40625 97.6484375 39.40625 114.6484375 39.40625 C110.04482252 33.89128228 110.04482252 33.89128228 105.0234375 29.15625 C100.89566754 25.64883853 96.91590241 22.00011552 92.94873047 18.31347656 C91.52614554 16.9992295 90.08751743 15.70241441 88.6484375 14.40625 C87.96971085 13.70660629 87.29098419 13.00696259 86.59169006 12.28611755 C82.34775225 9.57549696 78.66769359 9.79291159 73.72436523 9.77758789 C72.2306263 9.7502079 72.2306263 9.7502079 70.70671082 9.72227478 C67.41501438 9.6689991 64.12410054 9.64656428 60.83203125 9.62890625 C58.5362179 9.6084252 56.24040594 9.58778792 53.94459534 9.56700134 C49.12862503 9.52950377 44.31292725 9.51011241 39.49682617 9.50024414 C33.34811522 9.48392596 27.20249114 9.39830097 21.05470181 9.29555607 C16.30943604 9.22828777 11.5649024 9.21090293 6.81920052 9.20684624 C4.55422504 9.19663468 2.28925155 9.16829953 0.02474785 9.12095833 C-14.71125525 8.83610146 -22.82225547 9.59130821 -32.3515625 21.40625 Z M-59.3515625 48.40625 C-59.39739565 55.91779456 -59.43724482 63.42885686 -59.46142578 70.94042969 C-59.47150288 73.49741253 -59.48516476 76.05438379 -59.50244141 78.61132812 C-59.52661467 82.27997692 -59.53802835 85.94847379 -59.546875 89.6171875 C-59.55719757 90.76617523 -59.56752014 91.91516296 -59.57815552 93.09896851 C-59.57830658 94.1599173 -59.57845764 95.22086609 -59.57861328 96.31396484 C-59.5830545 97.25106293 -59.58749573 98.18816101 -59.59207153 99.15365601 C-59.5684948 101.60801071 -59.5684948 101.60801071 -57.3515625 103.40625 C-54.177885 103.71250567 -54.177885 103.71250567 -50.36694336 103.66021729 C-49.63977332 103.66333727 -48.91260328 103.66645725 -48.16339779 103.66967177 C-45.71431939 103.67768163 -43.26548672 103.67131662 -40.81640625 103.66503906 C-39.06568252 103.6677476 -37.31495992 103.67130776 -35.5642395 103.67565918 C-30.79988453 103.68480177 -26.03561586 103.68123125 -21.27125931 103.67490101 C-16.29403698 103.66985067 -11.31682222 103.67452976 -6.33959961 103.67767334 C2.02003308 103.68131581 10.37963048 103.67650653 18.73925781 103.66699219 C28.41523473 103.6561071 38.09112737 103.65963248 47.76710224 103.670645 C56.06265391 103.67970988 64.35818015 103.68100707 72.65373516 103.67576766 C77.61358205 103.67264355 82.57338928 103.67225066 87.53323364 103.67884064 C92.19531337 103.68460188 96.85728406 103.68063971 101.51935196 103.66905212 C103.2342727 103.66639897 104.94920256 103.66718172 106.66411972 103.67157745 C108.99747812 103.67700867 111.33048276 103.67022865 113.66381836 103.66021729 C115.62610634 103.65908621 115.62610634 103.65908621 117.6280365 103.65793228 C120.76102258 103.72429606 120.76102258 103.72429606 122.6484375 101.40625 C122.94098312 99.06060562 122.94098312 99.06060562 122.87548828 96.31396484 C122.87533722 95.25301605 122.87518616 94.19206726 122.87503052 93.09896851 C122.86470795 91.94998077 122.85438538 90.80099304 122.84375 89.6171875 C122.8409201 88.44362701 122.83809021 87.27006653 122.83517456 86.0609436 C122.82395105 82.30094338 122.79884242 78.54117861 122.7734375 74.78125 C122.76341051 72.2369826 122.75428418 69.69271148 122.74609375 67.1484375 C122.72570354 60.90087728 122.68655832 54.65382818 122.6484375 48.40625 C106.4784375 48.40625 90.3084375 48.40625 73.6484375 48.40625 C71.6684375 52.36625 69.6884375 56.32625 67.6484375 60.40625 C63.33298932 65.85734244 57.3909379 68.93417532 50.6484375 70.40625 C47.86813931 70.53686078 45.11336856 70.61805676 42.33203125 70.64453125 C41.52032974 70.652603 40.70862823 70.66067474 39.87232971 70.66899109 C38.15343339 70.68280489 36.43450995 70.69353911 34.71557617 70.70141602 C32.97493328 70.71288994 31.23432429 70.73326841 29.49389648 70.76293945 C7.68978194 71.13425869 7.68978194 71.13425869 -1.2265625 64.15625 C-5.11169394 59.12843285 -7.98481705 54.32311363 -10.3515625 48.40625 C-26.5215625 48.40625 -42.6915625 48.40625 -59.3515625 48.40625 Z " fill="#000000" transform="translate(68.3515625,87.59375)"/>
<path d="M0 0 C3.3 0 6.6 0 10 0 C10 9.24 10 18.48 10 28 C6.7 28 3.4 28 0 28 C0 18.76 0 9.52 0 0 Z " fill="#000000" transform="translate(95,29)"/>
<path d="M0 0 C3.81583379 0.65179251 6.02881405 1.46898975 9 4 C7.70208638 7.48174753 6.18014318 10.51615907 4.1796875 13.64453125 C3.64472656 14.48564453 3.10976562 15.32675781 2.55859375 16.19335938 C2.00300781 17.05767578 1.44742188 17.92199219 0.875 18.8125 C0.31167969 19.69615234 -0.25164062 20.57980469 -0.83203125 21.49023438 C-2.21763174 23.66257413 -3.60704634 25.83237083 -5 28 C-8.47153381 27.23596585 -10.99770818 25.91813089 -14 24 C-12.70208638 20.51825247 -11.18014318 17.48384093 -9.1796875 14.35546875 C-8.64472656 13.51435547 -8.10976562 12.67324219 -7.55859375 11.80664062 C-6.72521484 10.51016602 -6.72521484 10.51016602 -5.875 9.1875 C-5.31167969 8.30384766 -4.74835938 7.42019531 -4.16796875 6.50976562 C-2.78236826 4.33742587 -1.39295366 2.16762917 0 0 Z " fill="#000000" transform="translate(141,33)"/>
<path d="M0 0 C1.62573242 1.98779297 1.62573242 1.98779297 3.35546875 4.7421875 C4.28842773 6.21751953 4.28842773 6.21751953 5.24023438 7.72265625 C5.88283203 8.76292969 6.52542969 9.80320312 7.1875 10.875 C7.84169922 11.90753906 8.49589844 12.94007812 9.16992188 14.00390625 C14 21.70987031 14 21.70987031 14 24 C8.70588235 28 8.70588235 28 5 28 C3.69726562 26.41113281 3.69726562 26.41113281 2.40625 24.203125 C1.93316406 23.4090625 1.46007813 22.615 0.97265625 21.796875 C0.24369141 20.53617188 0.24369141 20.53617188 -0.5 19.25 C-1.46702867 17.60835981 -2.43572649 15.96770149 -3.40625 14.328125 C-3.83228516 13.5949707 -4.25832031 12.86181641 -4.69726562 12.10644531 C-5.97382253 9.93462534 -5.97382253 9.93462534 -7.72460938 7.91699219 C-8.14548828 7.28438477 -8.56636719 6.65177734 -9 6 C-8 3 -8 3 -5.625 1.3125 C-3 0 -3 0 0 0 Z " fill="#000000" transform="translate(61,33)"/>
</svg>
